<svg width="40" height="40" viewBox="0 0 40 40" fill="none" xmlns="http://www.w3.org/2000/svg">
<path d="M20.0007 36.6668C19.6118 36.6668 19.2784 36.5557 19.0007 36.3335C18.7229 36.1113 18.5145 35.8196 18.3757 35.4585C17.8479 33.9029 17.1812 32.4446 16.3757 31.0835C15.5979 29.7224 14.5007 28.1252 13.084 26.2918C11.6673 24.4585 10.5145 22.7085 9.62565 21.0418C8.76454 19.3752 8.33398 17.3613 8.33398 15.0002C8.33398 11.7502 9.45898 9.00016 11.709 6.75016C13.9868 4.47238 16.7507 3.3335 20.0007 3.3335C23.2507 3.3335 26.0007 4.47238 28.2507 6.75016C30.5284 9.00016 31.6673 11.7502 31.6673 15.0002C31.6673 17.5279 31.1812 19.639 30.209 21.3335C29.2645 23.0002 28.1673 24.6529 26.9173 26.2918C25.4173 28.2918 24.2784 29.9585 23.5007 31.2918C22.7507 32.5974 22.1257 33.9863 21.6257 35.4585C21.4868 35.8474 21.2645 36.1529 20.959 36.3752C20.6812 36.5696 20.3618 36.6668 20.0007 36.6668ZM20.0007 30.7085C20.4729 29.764 21.0007 28.8335 21.584 27.9168C22.1951 27.0002 23.084 25.7779 24.2507 24.2502C25.4451 22.6946 26.4173 21.264 27.1673 19.9585C27.9451 18.6252 28.334 16.9724 28.334 15.0002C28.334 12.6946 27.5145 10.7363 25.8757 9.12516C24.2645 7.48627 22.3062 6.66683 20.0007 6.66683C17.6951 6.66683 15.7229 7.48627 14.084 9.12516C12.4729 10.7363 11.6673 12.6946 11.6673 15.0002C11.6673 16.9724 12.0423 18.6252 12.7923 19.9585C13.5701 21.264 14.5562 22.6946 15.7507 24.2502C16.9173 25.7779 17.7923 27.0002 18.3757 27.9168C18.9868 28.8335 19.5284 29.764 20.0007 30.7085ZM20.0007 19.1668C21.1673 19.1668 22.1534 18.7641 22.959 17.9585C23.7645 17.1529 24.1673 16.1668 24.1673 15.0002C24.1673 13.8335 23.7645 12.8474 22.959 12.0418C22.1534 11.2363 21.1673 10.8335 20.0007 10.8335C18.834 10.8335 17.8479 11.2363 17.0423 12.0418C16.2368 12.8474 15.834 13.8335 15.834 15.0002C15.834 16.1668 16.2368 17.1529 17.0423 17.9585C17.8479 18.7641 18.834 19.1668 20.0007 19.1668Z" fill="#1D1B20"/>
</svg>
