<svg width="25" height="24" viewBox="0 0 25 24" fill="none" xmlns="http://www.w3.org/2000/svg">
<path d="M12.5 13C15.17 13 20.5 14.34 20.5 17V20H4.5V17C4.5 14.34 9.83 13 12.5 13ZM12.5 15C9.80027 15 6.70056 16.2897 6.5 17.0098V18H18.5V17C18.3 16.29 15.2 15 12.5 15ZM12.5 4C14.71 4 16.5 5.79 16.5 8C16.5 10.21 14.71 12 12.5 12C10.29 12 8.5 10.21 8.5 8C8.5 5.79 10.29 4 12.5 4ZM12.5 6C11.4 6 10.5 6.9 10.5 8C10.5 9.1 11.4 10 12.5 10C13.6 10 14.5 9.1 14.5 8C14.5 6.9 13.6 6 12.5 6Z" fill="#00696E"/>
</svg>
