<svg width="25" height="24" viewBox="0 0 25 24" fill="none" xmlns="http://www.w3.org/2000/svg">
    <path
        d="M6.5 22C5.66667 22 4.95833 21.7083 4.375 21.125C3.79167 20.5417 3.5 19.8333 3.5 19V18C3.5 17.45 3.69583 16.9792 4.0875 16.5875C4.47917 16.1958 4.95 16 5.5 16H6.5V4C6.5 3.45 6.69583 2.97917 7.0875 2.5875C7.47917 2.19583 7.95 2 8.5 2H19.5C20.05 2 20.5208 2.19583 20.9125 2.5875C21.3042 2.97917 21.5 3.45 21.5 4V11.1C21.1667 11.0167 20.8292 10.9917 20.4875 11.025C20.1458 11.0583 19.8167 11.1417 19.5 11.275V4H8.5V16H14.5L12.5 18H5.5V19C5.5 19.2833 5.59583 19.5208 5.7875 19.7125C5.97917 19.9042 6.21667 20 6.5 20H12.5V22H6.5ZM16 20.5H17.05L20.925 16.65L21.975 17.7L17.975 21.7C17.875 21.8 17.7625 21.875 17.6375 21.925C17.5125 21.975 17.3833 22 17.25 22H15.5C15.2167 22 14.9792 21.9042 14.7875 21.7125C14.5958 21.5208 14.5 21.2833 14.5 21V19.25C14.5 19.1167 14.525 18.9875 14.575 18.8625C14.625 18.7375 14.7 18.625 14.8 18.525L18.8 14.525L19.875 15.6L16 19.45V20.5ZM21.975 17.7L18.8 14.525L20.05 13.275C20.2333 13.0917 20.4667 13 20.75 13C21.0333 13 21.2667 13.0917 21.45 13.275L23.225 15.05C23.4083 15.2333 23.5 15.4667 23.5 15.75C23.5 16.0333 23.4083 16.2667 23.225 16.45L21.975 17.7ZM10.5 9C10.2167 9 9.97917 8.90417 9.7875 8.7125C9.59583 8.52083 9.5 8.28333 9.5 8C9.5 7.71667 9.59583 7.47917 9.7875 7.2875C9.97917 7.09583 10.2167 7 10.5 7H17.5C17.7833 7 18.0208 7.09583 18.2125 7.2875C18.4042 7.47917 18.5 7.71667 18.5 8C18.5 8.28333 18.4042 8.52083 18.2125 8.7125C18.0208 8.90417 17.7833 9 17.5 9H10.5ZM10.5 12C10.2167 12 9.97917 11.9042 9.7875 11.7125C9.59583 11.5208 9.5 11.2833 9.5 11C9.5 10.7167 9.59583 10.4792 9.7875 10.2875C9.97917 10.0958 10.2167 10 10.5 10H17.5C17.7833 10 18.0208 10.0958 18.2125 10.2875C18.4042 10.4792 18.5 10.7167 18.5 11C18.5 11.2833 18.4042 11.5208 18.2125 11.7125C18.0208 11.9042 17.7833 12 17.5 12H10.5Z"
        fill="#00696E" />
</svg>