<svg width="24" height="24" viewBox="0 0 24 24" fill="none" xmlns="http://www.w3.org/2000/svg">
    <path
        d="M7 21.0001V8.00005L13 2.05005C13.25 1.80005 13.5457 1.65405 13.887 1.61205C14.229 1.57072 14.5583 1.63339 14.875 1.80005C15.1917 1.96672 15.425 2.20005 15.575 2.50005C15.725 2.80005 15.7583 3.10839 15.675 3.42505L14.55 8.00005H21C21.5333 8.00005 22 8.20005 22.4 8.60005C22.8 9.00005 23 9.46672 23 10.0001V12.0001C23 12.1167 22.9833 12.2417 22.95 12.3751C22.9167 12.5084 22.8833 12.6334 22.85 12.7501L19.85 19.8001C19.7 20.1334 19.45 20.4167 19.1 20.6501C18.75 20.8834 18.3833 21.0001 18 21.0001H7ZM9 8.85005V19.0001H18L21 12.0001V10.0001H12L13.35 4.50005L9 8.85005ZM4 21.0001C3.45 21.0001 2.97933 20.8044 2.588 20.4131C2.196 20.0211 2 19.5501 2 19.0001V10.0001C2 9.45005 2.196 8.97905 2.588 8.58705C2.97933 8.19572 3.45 8.00005 4 8.00005H7V10.0001H4V19.0001H7V21.0001H4Z"
        fill="#00696E" />
</svg>